<svg xmlns="http://www.w3.org/2000/svg" viewBox="0 0 800 300" preserveAspectRatio="xMidYMid slice">
  <defs>
    <linearGradient id="bg" x1="0" y1="0" x2="1" y2="1">
      <stop offset="0%" stop-color="#101724"/>
      <stop offset="100%" stop-color="#0b101b"/>
    </linearGradient>
    <radialGradient id="glow" cx="50%" cy="45%" r="55%">
      <stop offset="0%" stop-color="#b8945f" stop-opacity="0.14"/>
      <stop offset="100%" stop-color="#b8945f" stop-opacity="0"/>
    </radialGradient>
  </defs>
  <rect width="800" height="300" fill="url(#bg)"/>
  <rect width="800" height="300" fill="url(#glow)"/>
  <g stroke="#b8945f" fill="none" opacity="0.1" stroke-width="1">
    <circle cx="400" cy="150" r="105"/>
    <circle cx="400" cy="150" r="150"/>
  </g>
  <g transform="translate(340,90) scale(5)" stroke="#b8945f" fill="none" stroke-width="1.1" stroke-linecap="round" stroke-linejoin="round" opacity="0.85">
    <path d="M19 21V5a2 2 0 00-2-2H7a2 2 0 00-2 2v16m14 0h2m-2 0h-5m-9 0H3m2 0h5M9 7h1m-1 4h1m4-4h1m-1 4h1m-5 10v-5a1 1 0 011-1h2a1 1 0 011 1v5m-4 0h4"/>
  </g>
</svg>
