<svg xmlns="http://www.w3.org/2000/svg" viewBox="0 0 800 300" preserveAspectRatio="xMidYMid slice">
  <defs>
    <linearGradient id="bg" x1="0" y1="0" x2="1" y2="1">
      <stop offset="0%" stop-color="#101724"/>
      <stop offset="100%" stop-color="#0b101b"/>
    </linearGradient>
    <radialGradient id="glow" cx="50%" cy="45%" r="55%">
      <stop offset="0%" stop-color="#b8945f" stop-opacity="0.14"/>
      <stop offset="100%" stop-color="#b8945f" stop-opacity="0"/>
    </radialGradient>
  </defs>
  <rect width="800" height="300" fill="url(#bg)"/>
  <rect width="800" height="300" fill="url(#glow)"/>
  <g stroke="#b8945f" fill="none" opacity="0.1" stroke-width="1">
    <circle cx="400" cy="150" r="105"/>
    <circle cx="400" cy="150" r="150"/>
  </g>
  <g transform="translate(340,90) scale(5)" stroke="#b8945f" fill="none" stroke-width="1.1" stroke-linecap="round" stroke-linejoin="round" opacity="0.85">
    <path d="M9 12l2 2 4-4m5.618-4.016A11.955 11.955 0 0112 2.944a11.955 11.955 0 01-8.618 3.04A12.02 12.02 0 003 9c0 5.591 3.824 10.29 9 11.622 5.176-1.332 9-6.03 9-11.622 0-1.042-.133-2.052-.382-3.016z"/>
  </g>
</svg>
