<svg xmlns="http://www.w3.org/2000/svg" viewBox="0 0 1600 900" preserveAspectRatio="xMidYMid slice">
  <defs>
    <radialGradient id="g1" cx="75%" cy="20%" r="60%">
      <stop offset="0%" stop-color="#b8945f" stop-opacity="0.13"/>
      <stop offset="100%" stop-color="#080c14" stop-opacity="0"/>
    </radialGradient>
    <radialGradient id="g2" cx="15%" cy="85%" r="55%">
      <stop offset="0%" stop-color="#b8945f" stop-opacity="0.07"/>
      <stop offset="100%" stop-color="#080c14" stop-opacity="0"/>
    </radialGradient>
  </defs>
  <rect width="1600" height="900" fill="#080c14"/>
  <rect width="1600" height="900" fill="url(#g1)"/>
  <rect width="1600" height="900" fill="url(#g2)"/>
  <g stroke="#b8945f" fill="none" opacity="0.14">
    <circle cx="1200" cy="180" r="140" stroke-width="1"/>
    <circle cx="1200" cy="180" r="260" stroke-width="0.7"/>
    <circle cx="1200" cy="180" r="400" stroke-width="0.5"/>
    <circle cx="1200" cy="180" r="560" stroke-width="0.35"/>
    <circle cx="220" cy="760" r="120" stroke-width="0.8"/>
    <circle cx="220" cy="760" r="240" stroke-width="0.5"/>
  </g>
  <g stroke="#b8945f" stroke-width="0.6" opacity="0.18">
    <line x1="1200" y1="180" x2="900" y2="420"/>
    <line x1="900" y1="420" x2="620" y2="330"/>
    <line x1="900" y1="420" x2="760" y2="640"/>
    <line x1="620" y1="330" x2="380" y2="480"/>
    <line x1="760" y1="640" x2="480" y2="700"/>
    <line x1="380" y1="480" x2="220" y2="760"/>
  </g>
  <g fill="#b8945f" opacity="0.4">
    <circle cx="1200" cy="180" r="4"/>
    <circle cx="900" cy="420" r="3"/>
    <circle cx="620" cy="330" r="2.5"/>
    <circle cx="760" cy="640" r="2.5"/>
    <circle cx="380" cy="480" r="2"/>
    <circle cx="480" cy="700" r="2"/>
    <circle cx="220" cy="760" r="3"/>
  </g>
</svg>
